<svg xmlns="http://www.w3.org/2000/svg" width="32" height="48" viewBox="0 0 16 24" shape-rendering="crispEdges" style="image-rendering:pixelated">
  <!-- SNES-style rival waiter: maroon jacket, auburn hair, green bow tie -->

  <!-- Hair (rows 0-1) - auburn/reddish -->
  <rect x="4" y="0" width="8" height="1" fill="#5A1010"/>
  <rect x="3" y="1" width="10" height="1" fill="#5A1010"/>

  <!-- Head outline + skin (rows 2-5) -->
  <rect x="2" y="2" width="1" height="4" fill="#5A1010"/>
  <rect x="3" y="2" width="10" height="4" fill="#DDA870"/>
  <rect x="13" y="2" width="1" height="4" fill="#5A1010"/>

  <!-- Eyes (row 3) -->
  <rect x="5" y="3" width="1" height="1" fill="#0A0808"/>
  <rect x="10" y="3" width="1" height="1" fill="#0A0808"/>

  <!-- Mouth line (row 5) - thinner to look more stern -->
  <rect x="6" y="5" width="4" height="1" fill="#601818"/>

  <!-- Chin (row 6, narrower) -->
  <rect x="3" y="6" width="1" height="1" fill="#5A1010"/>
  <rect x="4" y="6" width="8" height="1" fill="#DDA870"/>
  <rect x="12" y="6" width="1" height="1" fill="#5A1010"/>

  <!-- White collar (row 7) -->
  <rect x="5" y="7" width="6" height="1" fill="#F0F0F0"/>

  <!-- Maroon jacket sides (rows 8-12) -->
  <rect x="1" y="8" width="4" height="5" fill="#3A0A18"/>
  <rect x="11" y="8" width="4" height="5" fill="#3A0A18"/>

  <!-- Pale shirt front (rows 8-12) -->
  <rect x="5" y="8" width="6" height="5" fill="#E8E0D0"/>

  <!-- Green bow tie (row 9) -->
  <rect x="7" y="9" width="2" height="1" fill="#1A6830"/>

  <!-- Belt / lower jacket (row 13) -->
  <rect x="1" y="13" width="14" height="1" fill="#100818"/>

  <!-- Pants (rows 14-16) -->
  <rect x="1" y="14" width="14" height="3" fill="#140820"/>

  <!-- Legs (rows 17-21, gap at cols 7-8) -->
  <rect x="1" y="17" width="6" height="5" fill="#140820"/>
  <rect x="9" y="17" width="6" height="5" fill="#140820"/>

  <!-- Shoes (rows 22-23) -->
  <rect x="0" y="22" width="7" height="2" fill="#080808"/>
  <rect x="9" y="22" width="7" height="2" fill="#080808"/>
</svg>
